<?xml version="1.0" encoding="UTF-8"?>
<svg width="419px" height="83px" viewBox="0 0 419 83" version="1.1" xmlns="http://www.w3.org/2000/svg" xmlns:xlink="http://www.w3.org/1999/xlink">
    <g id="Homepage" stroke="none" stroke-width="1" fill="none" fill-rule="evenodd">
        <g id="Desktop-Homepage-New" transform="translate(-120.000000, -25.000000)">
            <g id="logo-travelchef" transform="translate(120.000000, 25.000000)">
                <g id="Group-7">
                    <path d="M62.6751436,0.373637192 C53.0473864,-1.21348524 45.862024,2.49279106 42.9564628,7.01460964 C46.1618255,8.03201882 52.6452574,13.597265 57.9851351,13.4447433 C45.6268504,13.7982347 44.2274775,6.31480438 30.8566896,5.66972748 C13.2536738,4.82009213 -2.58733492,17.2236917 0.354130721,39.4182846 C2.20230825,53.367736 15.5488608,64.9961667 30.3531307,65.30121 C39.0249341,65.47975 45.3692365,61.5294391 48.781947,59.3986218 C46.555876,61.418188 40.4314878,66.0880423 30.7750071,67.6294082 C31.1717504,70.1119225 33.0501621,77.5597972 33.5519257,81.3288766 C34.8005002,88.5862159 42.1037339,69.0123977 77.8976995,82.7357582 C82.7151686,84.5821675 77.6993279,68.3902222 80.9352093,60.1325201 C89.4723713,61.6119802 104.831364,59.5556294 108.812261,42.0470402 C113.267994,22.4533902 98.738392,11.3695516 83.4942934,13.6654511 C83.4942934,13.6654511 84.9358539,17.5547534 91.4767328,19.4881897 C76.6984935,18.3021095 81.22783,3.43214504 62.6751436,0.373637192 Z" id="Fill-7" fill="#4141D1"></path>
                    <path d="M8.93362352,25.9375 L11.4848047,25.9375 C12.5893741,25.9370771 13.4851475,26.8321645 13.4855706,27.9367339 C13.4856265,28.0825464 13.4697363,28.2279278 13.4376401,28.3701651 C13.2324721,29.2903756 13.1298881,30.2099045 13.1298881,31.1287518 C13.1298881,32.0459116 13.2320957,32.9630459 13.4365107,33.8801547 C13.6759445,34.9584615 12.9953248,36.0263324 11.9168885,36.2651816 C11.7750073,36.2966051 11.630124,36.3124716 11.4848047,36.3125 L8.93362352,36.3125 C8.06055537,36.3117179 7.28888523,35.7446991 7.02748907,34.9116801 C6.63143648,33.6519844 6.43341019,32.3910083 6.43341019,31.1287518 C6.43341019,29.8664953 6.63143648,28.6041881 7.02748907,27.3418304 C7.2870218,26.5069961 8.05937888,25.9383853 8.93362352,25.9375 Z" id="Rectangle" fill="#FFFFFF"></path>
                </g>
                <g id="TravelChef" transform="translate(129.748653, 18.156250)" fill="#ffffff" fill-rule="nonzero">
                    <polygon id="Path" points="11.4113352 43.3767682 19.5785501 43.3767682 19.5785501 9.32956064 31.0467996 9.32956064 31.0467996 1.99106477 2.84217094e-14 1.99106477 2.84217094e-14 9.32956064 11.4113352 9.32956064"></polygon>
                    <path d="M48.1888964,14.4494415 C46.5004364,14.4494415 44.916319,14.8523952 43.4365449,15.6583022 C41.9567708,16.4642092 40.676197,17.6161824 39.5948236,19.1142218 L39.509452,19.1142218 L39.509452,14.9329858 L31.8829238,14.9329858 L31.8829238,43.3767682 L39.509452,43.3767682 L39.509452,30.1788532 C39.509452,27.998163 40.1497389,26.2156863 41.4303127,24.8314221 C42.7108864,23.4471578 44.4894611,22.7550259 46.7660367,22.7550259 C47.3541522,22.7550259 48.0276389,22.7834697 48.7864975,22.8403573 L48.7864975,14.4778853 C48.6726688,14.4589226 48.4734684,14.4494415 48.1888964,14.4494415 Z" id="Path"></path>
                    <path d="M72.8721499,14.9329858 L72.8721499,18.1471332 L72.7583211,18.1471332 C70.6335171,15.6820052 67.8352264,14.4494415 64.3634486,14.4494415 C62.4852738,14.4494415 60.7161847,14.8192106 59.0561818,15.558749 C57.3961789,16.2982873 55.9733191,17.3127824 54.7876025,18.6022337 C53.6018859,19.891685 52.6675415,21.4560931 51.9845688,23.2954578 C51.3015962,25.1348225 50.9601098,27.1164058 50.9601098,29.2402083 C50.9601098,31.4019358 51.3015962,33.3977413 51.9845688,35.2276245 C52.6675415,37.0575077 53.611372,38.6029535 54.8160597,39.8639611 C56.0207475,41.1249686 57.4625789,42.1062791 59.1415534,42.8078926 C60.8205279,43.509506 62.6370453,43.8603125 64.5911062,43.8603125 C68.2336271,43.8603125 71.069861,42.5518985 73.0998075,39.9350705 L73.2420934,39.9350705 L73.2420934,43.3767682 L80.4986781,43.3767682 L80.4986781,14.9329858 L72.8721499,14.9329858 Z M65.9855087,37.0338047 C63.8417335,37.0338047 62.091616,36.313229 60.7351563,34.8720773 C59.3786965,33.4309255 58.7004668,31.5631174 58.7004668,29.2686521 C58.7004668,26.8793744 59.3976681,24.9546783 60.7920707,23.4945643 C62.1864732,22.0344503 63.9271051,21.304393 66.0139659,21.304393 C68.0818556,21.304393 69.7940298,22.062894 71.1504896,23.5798956 C72.5069494,25.0968972 73.1851791,26.9931495 73.1851791,29.2686521 C73.1851791,31.5631174 72.4927208,33.4309255 71.1078038,34.8720773 C69.7228869,36.313229 68.0154552,37.0338047 65.9855087,37.0338047 Z" id="Shape"></path>
                    <polygon id="Path" points="105.950276 14.9329858 99.405121 34.0472076 99.3197494 34.0472076 92.6323086 14.9329858 84.5789225 14.9329858 95.7910573 43.3767682 102.905356 43.3767682 114.089034 14.9329858"></polygon>
                    <path d="M143.183152,28.8988829 C143.183152,26.1303549 142.604523,23.6510051 141.447263,21.4608338 C140.290004,19.2706626 138.648973,17.5545545 136.524169,16.3125092 C134.399365,15.0704639 131.961532,14.4494415 129.21067,14.4494415 C127.218666,14.4494415 125.349977,14.8097295 123.604602,15.5303052 C121.859228,16.2508809 120.365225,17.251154 119.122594,18.5311243 C117.879963,19.8110945 116.89819,21.3660214 116.177274,23.1959046 C115.456359,25.0257878 115.095901,27.0026306 115.095901,29.1264332 C115.095901,32.027699 115.736188,34.6066021 117.016762,36.863142 C118.297335,39.119682 120.047453,40.8500123 122.267114,42.0541323 C124.486775,43.2582523 126.981523,43.8603125 129.751356,43.8603125 C132.483247,43.8603125 134.892623,43.3720274 136.979484,42.3954577 C139.066345,41.418888 140.754805,40.1152143 142.044864,38.4844376 L137.093313,33.8765449 C135.309995,36.0382723 133.042905,37.1096549 130.292043,37.0906923 C128.470783,37.0717296 126.919865,36.5787042 125.639292,35.6116156 C124.358718,34.644527 123.490773,33.3171503 123.035458,31.6294861 L142.983952,31.6294861 C143.116752,31.1554229 143.183152,30.2452218 143.183152,28.8988829 Z M129.466784,21.1621741 C131.079359,21.1621741 132.407361,21.6030528 133.450792,22.48481 C134.494222,23.3665673 135.215138,24.5849091 135.613538,26.139836 L123.063915,26.139836 C123.500259,24.5280216 124.282832,23.2954578 125.411634,22.4421443 C126.540436,21.5888309 127.892153,21.1621741 129.466784,21.1621741 Z" id="Shape"></path>
                    <polygon id="Path" points="149.084657 43.3767682 156.711185 43.3767682 156.711185 0.483544301 149.084657 0.483544301"></polygon>
                    <path d="M184.32553,43.8034249 C187.797308,43.8034249 190.937085,43.0875896 193.744861,41.6559194 C196.552638,40.2242491 198.905099,38.323256 200.802246,35.952941 L194.797778,30.8046164 C193.526689,32.3974682 191.980515,33.6679573 190.159255,34.6160832 C188.337994,35.5642091 186.39342,36.0382723 184.32553,36.0382723 C181.897183,36.0382723 179.729693,35.4741375 177.823061,34.3458673 C175.916429,33.2175971 174.436655,31.6484487 173.383738,29.6384213 C172.330822,27.6283939 171.804364,25.3528913 171.804364,22.8119135 C171.804364,21.6362373 171.908707,20.5174482 172.117393,19.4555472 C172.326079,18.3936461 172.629623,17.4123356 173.028023,16.5116157 C173.426424,15.6108958 173.905454,14.7812857 174.465112,14.0227847 C175.02477,13.2642837 175.660314,12.5958548 176.371744,12.0174981 C177.083174,11.4391413 177.856261,10.9461155 178.691005,10.5384214 C179.52575,10.1307273 180.417409,9.82258605 181.365982,9.61399846 C182.314555,9.40541087 183.301071,9.30111685 184.32553,9.30111685 C186.374448,9.30111685 188.309537,9.78940193 190.130798,10.7659716 C191.952058,11.7425414 193.507718,13.0082897 194.797778,14.5632166 L200.802246,9.44333577 C199.341443,7.64189636 197.667211,6.13437589 195.779551,4.92077436 C193.89189,3.70717283 191.999487,2.83489713 190.10234,2.30394638 C188.205194,1.77299563 186.279591,1.50752047 184.32553,1.50752047 C181.669525,1.50752047 179.207978,1.86780852 176.940888,2.5883842 C174.673798,3.30895988 172.710251,4.31871415 171.050248,5.61764703 C169.390246,6.9165799 167.967386,8.44780338 166.781669,10.2113179 C165.595953,11.9748324 164.709037,13.9232315 164.120921,16.0565152 C163.532806,18.1897989 163.238748,20.4415984 163.238748,22.8119135 C163.238748,25.4856291 163.608692,27.9602381 164.348579,30.2357407 C165.088466,32.5112433 166.108182,34.4691235 167.407727,36.1093818 C168.707273,37.7496401 170.239218,39.1576073 172.003564,40.3332835 C173.767911,41.5089597 175.693514,42.3812358 177.780375,42.9501115 C179.867236,43.5189871 182.048954,43.8034249 184.32553,43.8034249 Z" id="Path"></path>
                    <path d="M222.981266,14.4494415 C221.141034,14.4494415 219.42886,14.7812857 217.844742,15.4449739 C216.260625,16.108662 214.889937,17.0852321 213.732678,18.3746834 L213.618849,18.3746834 L213.618849,0.483544301 L205.992321,0.483544301 L205.992321,43.3767682 L213.618849,43.3767682 L213.618849,28.9557705 C213.618849,26.4527177 214.206964,24.551725 215.383195,23.2527921 C216.559426,21.9538593 218.190972,21.304393 220.277833,21.304393 C222.174979,21.304393 223.574124,21.8258622 224.475269,22.8688011 C225.376413,23.9117399 225.826986,25.6942166 225.826986,28.2162322 L225.826986,43.405212 L233.481971,43.405212 L233.481971,26.282055 C233.481971,24.1582524 233.225856,22.3236284 232.713627,20.7781831 C232.201397,19.2327377 231.470996,18.0049143 230.522423,17.0947132 C229.57385,16.1845122 228.478248,15.5160833 227.235617,15.0894266 C225.992986,14.6627698 224.574869,14.4494415 222.981266,14.4494415 Z" id="Path"></path>
                    <path d="M266.759297,28.8988829 C266.759297,26.1303549 266.180668,23.6510051 265.023408,21.4608338 C263.866149,19.2706626 262.225118,17.5545545 260.100314,16.3125092 C257.97551,15.0704639 255.537677,14.4494415 252.786815,14.4494415 C250.794811,14.4494415 248.926122,14.8097295 247.180747,15.5303052 C245.435373,16.2508809 243.94137,17.251154 242.698739,18.5311243 C241.456108,19.8110945 240.474335,21.3660214 239.753419,23.1959046 C239.032504,25.0257878 238.672046,27.0026306 238.672046,29.1264332 C238.672046,32.027699 239.312333,34.6066021 240.592907,36.863142 C241.87348,39.119682 243.623598,40.8500123 245.843259,42.0541323 C248.06292,43.2582523 250.557668,43.8603125 253.327501,43.8603125 C256.059392,43.8603125 258.468768,43.3720274 260.555629,42.3954577 C262.64249,41.418888 264.33095,40.1152143 265.621009,38.4844376 L260.669458,33.8765449 C258.88614,36.0382723 256.61905,37.1096549 253.868188,37.0906923 C252.046927,37.0717296 250.49601,36.5787042 249.215437,35.6116156 C247.934863,34.644527 247.066918,33.3171503 246.611603,31.6294861 L266.560097,31.6294861 C266.692897,31.1554229 266.759297,30.2452218 266.759297,28.8988829 Z M253.042929,21.1621741 C254.655504,21.1621741 255.983506,21.6030528 257.026937,22.48481 C258.070367,23.3665673 258.791283,24.5849091 259.189683,26.139836 L246.64006,26.139836 C247.076404,24.5280216 247.858977,23.2954578 248.987779,22.4421443 C250.116581,21.5888309 251.468298,21.1621741 253.042929,21.1621741 Z" id="Shape"></path>
                    <path d="M272.945374,43.3767682 L280.571902,43.3767682 L280.571902,21.2475055 L286.917857,21.2475055 L286.917857,14.9329858 L280.571902,14.9329858 L280.571902,10.6095308 C280.571902,8.04959043 281.529961,6.76962022 283.446079,6.76962022 C284.584367,6.76962022 286.007226,7.18679584 287.714658,8.02114664 L289.251347,2.04795233 C288.454545,1.51700158 287.415858,1.04293883 286.135284,0.625763213 C284.85471,0.208587593 283.436593,0 281.880933,0 C280.002758,0 278.39967,0.374509947 277.071667,1.12352941 C275.743665,1.87254887 274.723949,3.00081905 274.012519,4.50833951 C273.301089,6.01585998 272.945374,7.85996507 272.945374,10.0406552 L272.945374,14.9329858 L269.928911,14.9329858 L269.928911,21.2475055 L272.945374,21.2475055 L272.945374,43.3767682 Z" id="Path"></path>
                </g>
            </g>
        </g>
    </g>
</svg>
