<svg width="332" height="105" viewBox="0 0 332 105" fill="none" xmlns="http://www.w3.org/2000/svg">
<path d="M19.3709 34.0081V70.5584C19.3709 78.6295 25.9373 85.1962 34.0087 85.1962H70.559C78.6301 85.1962 85.1968 78.6298 85.1968 70.5584V34.0081C85.1968 25.9371 78.6304 19.3703 70.559 19.3703H34.0084C25.9373 19.3706 19.3709 25.9371 19.3709 34.0081ZM79.635 34.0081V70.5584C79.635 75.5632 75.5635 79.6348 70.5587 79.6348H34.0084C29.0036 79.6348 24.9321 75.5632 24.9321 70.5584V34.0081C24.9321 29.0034 29.0036 24.9318 34.0084 24.9318H70.5587C75.5635 24.9321 79.635 29.0037 79.635 34.0081Z" fill="#0284C7"/>
<path d="M43.0461 10.7615V2.78074C43.0461 1.24494 41.8011 0 40.2653 0C38.7295 0 37.4846 1.24494 37.4846 2.78074V10.7615C37.4846 12.2973 38.7295 13.5422 40.2653 13.5422C41.8011 13.5422 43.0461 12.2973 43.0461 10.7615Z" fill="#0284C7"/>
<path d="M67.0828 10.7615V2.78074C67.0828 1.24494 65.8378 0 64.302 0C62.7662 0 61.5213 1.24494 61.5213 2.78074V10.7615C61.5213 12.2973 62.7662 13.5422 64.302 13.5422C65.8378 13.5422 67.0828 12.2973 67.0828 10.7615Z" fill="#0284C7"/>
<path d="M43.0461 93.8054C43.0461 92.2699 41.8011 91.0247 40.2653 91.0247C38.7295 91.0247 37.4846 92.2699 37.4846 93.8054V101.786C37.4846 103.322 38.7295 104.567 40.2653 104.567C41.8011 104.567 43.0461 103.322 43.0461 101.786V93.8054Z" fill="#0284C7"/>
<path d="M61.5213 93.8054V101.786C61.5213 103.322 62.7662 104.567 64.302 104.567C65.8378 104.567 67.0828 103.322 67.0828 101.786V93.8054C67.0828 92.2699 65.8378 91.0247 64.302 91.0247C62.7662 91.0247 61.5213 92.2699 61.5213 93.8054Z" fill="#0284C7"/>
<path d="M101.787 37.4843H93.806C92.2702 37.4843 91.0252 38.7293 91.0252 40.2651C91.0252 41.8009 92.2702 43.0458 93.806 43.0458H101.787C103.322 43.0458 104.567 41.8009 104.567 40.2651C104.567 38.7293 103.322 37.4843 101.787 37.4843Z" fill="#0284C7"/>
<path d="M101.787 61.521H93.806C92.2702 61.521 91.0252 62.7662 91.0252 64.3018C91.0252 65.8373 92.2702 67.0825 93.806 67.0825H101.787C103.322 67.0825 104.567 65.8373 104.567 64.3018C104.567 62.7662 103.322 61.521 101.787 61.521Z" fill="#0284C7"/>
<path d="M2.78074 43.0458H10.7615C12.2973 43.0458 13.5422 41.8009 13.5422 40.2651C13.5422 38.7293 12.2973 37.4843 10.7615 37.4843H2.78074C1.24494 37.4843 0 38.7293 0 40.2651C0 41.8009 1.24521 43.0458 2.78074 43.0458Z" fill="#0284C7"/>
<path d="M2.78074 67.0825H10.7615C12.2973 67.0825 13.5422 65.8373 13.5422 64.3018C13.5422 62.7662 12.2973 61.521 10.7615 61.521H2.78074C1.24494 61.521 0 62.7662 0 64.3018C0 65.8373 1.24521 67.0825 2.78074 67.0825Z" fill="#0284C7"/>
<path d="M38.558 68.7899H66.0094C67.5452 68.7899 68.7901 67.5447 68.7901 66.0091V38.5577C68.7901 37.0219 67.5452 35.777 66.0094 35.777H38.558C37.0222 35.777 35.7772 37.0219 35.7772 38.5577V66.0091C35.7772 67.5449 37.0222 68.7899 38.558 68.7899ZM41.3387 41.3384H63.2287V63.2284H41.3387V41.3384Z" fill="#0284C7"/>
<path d="M136.84 74.448C133.725 74.448 130.909 73.9147 128.392 72.848C125.917 71.7813 123.955 70.2453 122.504 68.24C121.053 66.2347 120.307 63.8667 120.264 61.136H129.864C129.992 62.9707 130.632 64.4213 131.784 65.488C132.979 66.5547 134.6 67.088 136.648 67.088C138.739 67.088 140.381 66.5973 141.576 65.616C142.771 64.592 143.368 63.2693 143.368 61.648C143.368 60.3253 142.963 59.2373 142.152 58.384C141.341 57.5307 140.317 56.8693 139.08 56.4C137.885 55.888 136.221 55.3333 134.088 54.736C131.187 53.8827 128.819 53.0507 126.984 52.24C125.192 51.3867 123.635 50.128 122.312 48.464C121.032 46.7573 120.392 44.496 120.392 41.68C120.392 39.0347 121.053 36.7307 122.376 34.768C123.699 32.8053 125.555 31.312 127.944 30.288C130.333 29.2213 133.064 28.688 136.136 28.688C140.744 28.688 144.477 29.8187 147.336 32.08C150.237 34.2987 151.837 37.4133 152.136 41.424H142.28C142.195 39.888 141.533 38.6293 140.296 37.648C139.101 36.624 137.501 36.112 135.496 36.112C133.747 36.112 132.339 36.56 131.272 37.456C130.248 38.352 129.736 39.6533 129.736 41.36C129.736 42.5547 130.12 43.5573 130.888 44.368C131.699 45.136 132.68 45.776 133.832 46.288C135.027 46.7573 136.691 47.312 138.824 47.952C141.725 48.8053 144.093 49.6587 145.928 50.512C147.763 51.3653 149.341 52.6453 150.664 54.352C151.987 56.0587 152.648 58.2987 152.648 61.072C152.648 63.4613 152.029 65.68 150.792 67.728C149.555 69.776 147.741 71.4187 145.352 72.656C142.963 73.8507 140.125 74.448 136.84 74.448ZM176.16 74.576C172.747 74.576 169.675 73.8293 166.944 72.336C164.213 70.8 162.059 68.6453 160.48 65.872C158.944 63.0987 158.176 59.8987 158.176 56.272C158.176 52.6453 158.965 49.4453 160.544 46.672C162.165 43.8987 164.363 41.7653 167.136 40.272C169.909 38.736 173.003 37.968 176.416 37.968C179.829 37.968 182.923 38.736 185.696 40.272C188.469 41.7653 190.645 43.8987 192.224 46.672C193.845 49.4453 194.656 52.6453 194.656 56.272C194.656 59.8987 193.824 63.0987 192.16 65.872C190.539 68.6453 188.32 70.8 185.504 72.336C182.731 73.8293 179.616 74.576 176.16 74.576ZM176.16 66.768C177.781 66.768 179.296 66.384 180.704 65.616C182.155 64.8053 183.307 63.6107 184.16 62.032C185.013 60.4533 185.44 58.5333 185.44 56.272C185.44 52.9013 184.544 50.32 182.752 48.528C181.003 46.6933 178.848 45.776 176.288 45.776C173.728 45.776 171.573 46.6933 169.824 48.528C168.117 50.32 167.264 52.9013 167.264 56.272C167.264 59.6427 168.096 62.2453 169.76 64.08C171.467 65.872 173.6 66.768 176.16 66.768ZM234.701 38.544V74H225.677V69.52C224.525 71.056 223.01 72.272 221.133 73.168C219.298 74.0213 217.293 74.448 215.117 74.448C212.343 74.448 209.89 73.872 207.757 72.72C205.623 71.5253 203.938 69.7973 202.701 67.536C201.506 65.232 200.909 62.5013 200.909 59.344V38.544H209.869V58.064C209.869 60.88 210.573 63.056 211.981 64.592C213.389 66.0853 215.309 66.832 217.741 66.832C220.215 66.832 222.157 66.0853 223.565 64.592C224.973 63.056 225.677 60.88 225.677 58.064V38.544H234.701ZM259.797 45.904H253.589V74H244.501V45.904H240.469V38.544H244.501V36.752C244.501 32.4 245.738 29.2 248.213 27.152C250.688 25.104 254.421 24.144 259.413 24.272V31.824C257.237 31.7813 255.722 32.144 254.869 32.912C254.016 33.68 253.589 35.0667 253.589 37.072V38.544H259.797V45.904ZM289.814 29.328V74H280.854V29.328H289.814ZM329.066 29.328V36.56H317.162V74H308.202V36.56H296.298V29.328H329.066Z" fill="#0284C7"/>
</svg>
