<svg width="105" height="105" viewBox="0 0 105 105" fill="none" xmlns="http://www.w3.org/2000/svg">
<path d="M19.3709 34.0081V70.5584C19.3709 78.6295 25.9373 85.1962 34.0087 85.1962H70.559C78.6301 85.1962 85.1968 78.6298 85.1968 70.5584V34.0081C85.1968 25.9371 78.6304 19.3703 70.559 19.3703H34.0084C25.9373 19.3706 19.3709 25.9371 19.3709 34.0081ZM79.635 34.0081V70.5584C79.635 75.5632 75.5635 79.6348 70.5587 79.6348H34.0084C29.0036 79.6348 24.9321 75.5632 24.9321 70.5584V34.0081C24.9321 29.0034 29.0036 24.9318 34.0084 24.9318H70.5587C75.5635 24.9321 79.635 29.0036 79.635 34.0081Z" fill="#0284C7"/>
<path d="M43.0461 10.7615V2.78074C43.0461 1.24494 41.8011 0 40.2653 0C38.7295 0 37.4846 1.24494 37.4846 2.78074V10.7615C37.4846 12.2973 38.7295 13.5422 40.2653 13.5422C41.8011 13.5422 43.0461 12.2973 43.0461 10.7615Z" fill="#0284C7"/>
<path d="M67.0828 10.7615V2.78074C67.0828 1.24494 65.8378 0 64.302 0C62.7662 0 61.5213 1.24494 61.5213 2.78074V10.7615C61.5213 12.2973 62.7662 13.5422 64.302 13.5422C65.8378 13.5422 67.0828 12.2973 67.0828 10.7615Z" fill="#0284C7"/>
<path d="M43.0461 93.8054C43.0461 92.2699 41.8011 91.0247 40.2653 91.0247C38.7295 91.0247 37.4846 92.2699 37.4846 93.8054V101.786C37.4846 103.322 38.7295 104.567 40.2653 104.567C41.8011 104.567 43.0461 103.322 43.0461 101.786V93.8054Z" fill="#0284C7"/>
<path d="M61.5213 93.8054V101.786C61.5213 103.322 62.7662 104.567 64.302 104.567C65.8378 104.567 67.0828 103.322 67.0828 101.786V93.8054C67.0828 92.2699 65.8378 91.0247 64.302 91.0247C62.7662 91.0247 61.5213 92.2699 61.5213 93.8054Z" fill="#0284C7"/>
<path d="M101.787 37.4843H93.806C92.2702 37.4843 91.0252 38.7293 91.0252 40.2651C91.0252 41.8009 92.2702 43.0458 93.806 43.0458H101.787C103.322 43.0458 104.567 41.8009 104.567 40.2651C104.567 38.7293 103.322 37.4843 101.787 37.4843Z" fill="#0284C7"/>
<path d="M101.787 61.521H93.806C92.2702 61.521 91.0252 62.7662 91.0252 64.3018C91.0252 65.8373 92.2702 67.0825 93.806 67.0825H101.787C103.322 67.0825 104.567 65.8373 104.567 64.3018C104.567 62.7662 103.322 61.521 101.787 61.521Z" fill="#0284C7"/>
<path d="M2.78074 43.0458H10.7615C12.2973 43.0458 13.5422 41.8009 13.5422 40.2651C13.5422 38.7293 12.2973 37.4843 10.7615 37.4843H2.78074C1.24494 37.4843 0 38.7293 0 40.2651C0 41.8009 1.24521 43.0458 2.78074 43.0458Z" fill="#0284C7"/>
<path d="M2.78074 67.0825H10.7615C12.2973 67.0825 13.5422 65.8373 13.5422 64.3018C13.5422 62.7662 12.2973 61.521 10.7615 61.521H2.78074C1.24494 61.521 0 62.7662 0 64.3018C0 65.8373 1.24521 67.0825 2.78074 67.0825Z" fill="#0284C7"/>
<path d="M38.558 68.7899H66.0094C67.5452 68.7899 68.7901 67.5447 68.7901 66.0091V38.5577C68.7901 37.0219 67.5452 35.777 66.0094 35.777H38.558C37.0222 35.777 35.7772 37.0219 35.7772 38.5577V66.0091C35.7772 67.5449 37.0222 68.7899 38.558 68.7899ZM41.3387 41.3384H63.2287V63.2284H41.3387V41.3384Z" fill="#0284C7"/>
</svg>
